ffmpeg started on 2016-11-30 at 10:56:01
Report written to "Output/x264/results/ffmpeg/old_town_cross_2160p50faster14000k.log"
Command line:
Tools/ffmpeg/ffmpeg -benchmark -y -i Input/y4m/old_town_cross_2160p50.y4m -c:v libx264 -preset faster -b:v 14000k -an Output/x264/encoded/old_town_cross_2160p50faster14000k.mkv
ffmpeg version N-82227-gdb23fde Copyright (c) 2000-2016 the FFmpeg developers
  built with gcc 5.4.0 (Ubuntu 5.4.0-6ubuntu1~16.04.2) 20160609
  configuration: --prefix=/home/jaroslav/ffmpeg_build --pkg-config-flags=--static --extra-cflags=-I/home/jaroslav/ffmpeg_build/include --extra-ldflags=-L/home/jaroslav/ffmpeg_build/lib --bindir=/home/jaroslav/bin --enable-gpl --enable-libass --enable-libfdk-aac --enable-libfreetype --enable-libmp3lame --enable-libopus --enable-libtheora --enable-libvorbis --enable-libvpx --enable-libx264 --enable-libx265 --enable-nvenc --enable-libmfx --enable-libxvid --enable-libgsm --enable-libopencore-amrnb --enable-version3 --enable-nonfree
  libavutil      55. 35.100 / 55. 35.100
  libavcodec     57. 66.101 / 57. 66.101
  libavformat    57. 57.100 / 57. 57.100
  libavdevice    57.  2.100 / 57.  2.100
  libavfilter     6. 66.100 /  6. 66.100
  libswscale      4.  3.100 /  4.  3.100
  libswresample   2.  4.100 /  2.  4.100
  libpostproc    54.  2.100 / 54.  2.100
Input #0, yuv4mpegpipe, from 'Input/y4m/old_town_cross_2160p50.y4m':
  Duration: 00:00:10.00, start: 0.000000, bitrate: 4976642 kb/s
    Stream #0:0: Video: rawvideo (I420 / 0x30323449), yuv420p(progressive), 3840x2160, SAR 1:1 DAR 16:9, 50 fps, 50 tbr, 50 tbn, 50 tbc
[libx264 @ 0x467d120] using SAR=1/1
[libx264 @ 0x467d120] using cpu capabilities: MMX2 SSE2Fast SSSE3 SSE4.2 AVX FMA3 AVX2 LZCNT BMI2
[libx264 @ 0x467d120] profile High, level 5.2
[libx264 @ 0x467d120] 264 - core 148 - H.264/MPEG-4 AVC codec - Copyleft 2003-2016 - http://www.videolan.org/x264.html - options: cabac=1 ref=2 deblock=1:0:0 analyse=0x3:0x113 me=hex subme=4 psy=1 psy_rd=1.00:0.00 mixed_ref=0 me_range=16 chroma_me=1 trellis=1 8x8dct=1 cqm=0 deadzone=21,11 fast_pskip=1 chroma_qp_offset=0 threads=6 lookahead_threads=1 sliced_threads=0 nr=0 decimate=1 interlaced=0 bluray_compat=0 constrained_intra=0 bframes=3 b_pyramid=2 b_adapt=1 b_bias=0 direct=1 weightb=1 open_gop=0 weightp=1 keyint=250 keyint_min=25 scenecut=40 intra_refresh=0 rc_lookahead=20 rc=abr mbtree=1 bitrate=14000 ratetol=1.0 qcomp=0.60 qpmin=0 qpmax=69 qpstep=4 ip_ratio=1.40 aq=1:1.00
Output #0, matroska, to 'Output/x264/encoded/old_town_cross_2160p50faster14000k.mkv':
  Metadata:
    encoder         : Lavf57.57.100
    Stream #0:0: Video: h264 (libx264) (H264 / 0x34363248), yuv420p, 3840x2160 [SAR 1:1 DAR 16:9], q=-1--1, 14000 kb/s, 50 fps, 1k tbn, 50 tbc
    Metadata:
      encoder         : Lavc57.66.101 libx264
    Side data:
      cpb: bitrate max/min/avg: 0/0/14000000 buffer size: 0 vbv_delay: -1
Stream mapping:
  Stream #0:0 -> #0:0 (rawvideo (native) -> h264 (libx264))
Press [q] to stop, [?] for help
frame=   27 fps= 21 q=0.0 size=       0kB time=00:00:00.00 bitrate=N/A speed=   0x    frame=   33 fps= 18 q=31.0 size=       1kB time=00:00:00.00 bitrate=5864.0kbits/s speed=0.000547x    frame=   43 fps= 18 q=46.0 size=       1kB time=00:00:00.20 bitrate=  29.2kbits/s speed=0.0837x    frame=   52 fps= 17 q=42.0 size=       1kB time=00:00:00.38 bitrate=  15.4kbits/s speed=0.128x    frame=   63 fps= 18 q=38.0 size=       1kB time=00:00:00.60 bitrate=   9.8kbits/s speed=0.173x    frame=   72 fps= 17 q=37.0 size=       1kB time=00:00:00.78 bitrate=   7.5kbits/s speed=0.187x    frame=   83 fps= 18 q=35.0 size=       1kB time=00:00:01.00 bitrate=   5.9kbits/s speed=0.214x    frame=   92 fps= 17 q=34.0 size=       1kB time=00:00:01.18 bitrate=   5.0kbits/s speed=0.22x    frame=  103 fps= 18 q=33.0 size=       1kB time=00:00:01.40 bitrate=   4.2kbits/s speed=0.238x    frame=  112 fps= 17 q=33.0 size=       1kB time=00:00:01.58 bitrate=   3.7kbits/s speed=0.241x    frame=  123 fps= 17 q=33.0 size=       1kB time=00:00:01.80 bitrate=   3.3kbits/s speed=0.254x    frame=  131 fps= 17 q=32.0 size=       1kB time=00:00:01.96 bitrate=   3.0kbits/s speed=0.258x    frame=  139 fps= 17 q=32.0 size=       1kB time=00:00:02.12 bitrate=   2.8kbits/s speed=0.262x    frame=  146 fps= 17 q=32.0 size=       1kB time=00:00:02.26 bitrate=   2.6kbits/s speed=0.262x    frame=  154 fps= 17 q=32.0 size=       1kB time=00:00:02.42 bitrate=   2.4kbits/s speed=0.263x    frame=  164 fps= 17 q=32.0 size=       1kB time=00:00:02.62 bitrate=   2.2kbits/s speed=0.27x    frame=  172 fps= 17 q=32.0 size=       1kB time=00:00:02.78 bitrate=   2.1kbits/s speed=0.271x    frame=  182 fps= 17 q=32.0 size=       1kB time=00:00:02.98 bitrate=   2.0kbits/s speed=0.274x    frame=  191 fps= 17 q=32.0 size=    5136kB time=00:00:03.16 bitrate=13310.3kbits/s speed=0.277x    frame=  200 fps= 17 q=32.0 size=    5136kB time=00:00:03.34 bitrate=12593.2kbits/s speed=0.279x    frame=  207 fps= 17 q=32.0 size=    5136kB time=00:00:03.48 bitrate=12086.7kbits/s speed=0.278x    frame=  218 fps= 17 q=32.0 size=    5136kB time=00:00:03.70 bitrate=11368.2kbits/s speed=0.282x    frame=  226 fps= 17 q=32.0 size=    5136kB time=00:00:03.86 bitrate=10897.1kbits/s speed=0.283x    frame=  234 fps= 17 q=32.0 size=    5136kB time=00:00:04.02 bitrate=10463.5kbits/s speed=0.284x    frame=  242 fps= 16 q=32.0 size=    5136kB time=00:00:04.18 bitrate=10063.1kbits/s speed=0.277x    frame=  245 fps= 15 q=32.0 size=    5136kB time=00:00:04.24 bitrate=9920.7kbits/s speed=0.267x    frame=  250 fps= 15 q=33.0 size=    5136kB time=00:00:04.34 bitrate=9692.2kbits/s speed=0.264x    frame=  255 fps= 15 q=33.0 size=    5136kB time=00:00:04.44 bitrate=9473.9kbits/s speed=0.261x    frame=  260 fps= 15 q=33.0 size=    5136kB time=00:00:04.54 bitrate=9265.3kbits/s speed=0.258x    frame=  265 fps= 15 q=33.0 size=    5136kB time=00:00:04.64 bitrate=9065.7kbits/s speed=0.255x    frame=  270 fps= 14 q=33.0 size=    5136kB time=00:00:04.74 bitrate=8874.5kbits/s speed=0.253x    frame=  275 fps= 14 q=30.0 size=    5136kB time=00:00:04.84 bitrate=8691.1kbits/s speed=0.249x    frame=  284 fps= 14 q=34.0 size=    8658kB time=00:00:05.02 bitrate=14126.4kbits/s speed=0.251x    frame=  295 fps= 14 q=34.0 size=    8658kB time=00:00:05.24 bitrate=13533.4kbits/s speed=0.255x    frame=  303 fps= 14 q=34.0 size=    8658kB time=00:00:05.40 bitrate=13132.5kbits/s speed=0.256x    frame=  313 fps= 14 q=33.0 size=    8658kB time=00:00:05.60 bitrate=12663.6kbits/s speed=0.258x    frame=  323 fps= 15 q=33.0 size=    8658kB time=00:00:05.80 bitrate=12227.0kbits/s speed=0.261x    frame=  332 fps= 15 q=33.0 size=    8658kB time=00:00:05.98 bitrate=11859.0kbits/s speed=0.262x    frame=  340 fps= 15 q=33.0 size=    8658kB time=00:00:06.14 bitrate=11550.0kbits/s speed=0.263x    frame=  349 fps= 15 q=33.0 size=    8658kB time=00:00:06.32 bitrate=11221.1kbits/s speed=0.265x    frame=  357 fps= 15 q=33.0 size=    8658kB time=00:00:06.48 bitrate=10944.1kbits/s speed=0.266x    frame=  366 fps= 15 q=33.0 size=    8658kB time=00:00:06.66 bitrate=10648.3kbits/s speed=0.268x    frame=  373 fps= 15 q=33.0 size=    8658kB time=00:00:06.80 bitrate=10429.1kbits/s speed=0.268x    frame=  382 fps= 15 q=33.0 size=    8658kB time=00:00:06.98 bitrate=10160.2kbits/s speed=0.27x    frame=  389 fps= 15 q=33.0 size=    8658kB time=00:00:07.12 bitrate=9960.5kbits/s speed=0.27x    frame=  396 fps= 15 q=33.0 size=    8658kB time=00:00:07.26 bitrate=9768.4kbits/s speed=0.27x    frame=  407 fps= 15 q=33.0 size=    8658kB time=00:00:07.48 bitrate=9481.2kbits/s speed=0.271x    frame=  415 fps= 15 q=33.0 size=    8658kB time=00:00:07.64 bitrate=9282.6kbits/s speed=0.272x    frame=  424 fps= 15 q=33.0 size=    8658kB time=00:00:07.82 bitrate=9069.0kbits/s speed=0.273x    frame=  433 fps= 15 q=33.0 size=    8658kB time=00:00:08.00 bitrate=8865.0kbits/s speed=0.274x    frame=  443 fps= 15 q=33.0 size=   13821kB time=00:00:08.20 bitrate=13806.1kbits/s speed=0.274x    frame=  453 fps= 15 q=33.0 size=   13821kB time=00:00:08.40 bitrate=13477.4kbits/s speed=0.276x    frame=  460 fps= 15 q=32.0 size=   13821kB time=00:00:08.54 bitrate=13256.5kbits/s speed=0.276x    frame=  469 fps= 15 q=32.0 size=   13821kB time=00:00:08.72 bitrate=12982.9kbits/s speed=0.277x    frame=  476 fps= 15 q=33.0 size=   13821kB time=00:00:08.86 bitrate=12777.7kbits/s speed=0.277x    frame=  483 fps= 15 q=33.0 size=   13821kB time=00:00:09.00 bitrate=12579.0kbits/s speed=0.274x    frame=  486 fps= 14 q=33.0 size=   13821kB time=00:00:09.06 bitrate=12495.7kbits/s speed=0.269x    frame=  491 fps= 14 q=33.0 size=   13821kB time=00:00:09.16 bitrate=12359.3kbits/s speed=0.267x    frame=  496 fps= 14 q=33.0 size=   13821kB time=00:00:09.26 bitrate=12225.8kbits/s speed=0.266x    frame=  500 fps= 14 q=33.0 size=   13821kB time=00:00:09.34 bitrate=12121.1kbits/s speed=0.264x    frame=  500 fps= 14 q=-1.0 Lsize=   17558kB time=00:00:09.94 bitrate=14468.5kbits/s speed=0.27x    
video:17553kB audio:0kB subtitle:0kB other streams:0kB global headers:0kB muxing overhead: 0.026727%
bench: utime=121.088s
bench: maxrss=1349120kB
[libx264 @ 0x467d120] frame I:3     Avg QP:28.10  size:566649
[libx264 @ 0x467d120] frame P:183   Avg QP:31.25  size: 56246
[libx264 @ 0x467d120] frame B:314   Avg QP:33.26  size: 19046
[libx264 @ 0x467d120] consecutive B-frames: 16.0%  0.8%  0.0% 83.2%
[libx264 @ 0x467d120] mb I  I16..4: 26.4% 53.4% 20.2%
[libx264 @ 0x467d120] mb P  I16..4:  4.0%  3.8%  0.0%  P16..4: 29.6%  4.1%  0.5%  0.0%  0.0%    skip:57.8%
[libx264 @ 0x467d120] mb B  I16..4:  0.7%  0.7%  0.0%  B16..8: 14.4%  0.6%  0.0%  direct:11.7%  skip:71.8%  L0:38.6% L1:60.2% BI: 1.2%
[libx264 @ 0x467d120] final ratefactor: 25.01
[libx264 @ 0x467d120] 8x8 transform intra:49.2% inter:60.1%
[libx264 @ 0x467d120] coded y,uvDC,uvAC intra: 53.3% 46.0% 23.7% inter: 7.3% 5.7% 0.0%
[libx264 @ 0x467d120] i16 v,h,dc,p: 32% 25% 34%  9%
[libx264 @ 0x467d120] i8 v,h,dc,ddl,ddr,vr,hd,vl,hu:  8% 12% 58%  3%  3%  3%  5%  3%  4%
[libx264 @ 0x467d120] i4 v,h,dc,ddl,ddr,vr,hd,vl,hu: 15% 24% 12%  7%  7%  7% 11%  7% 10%
[libx264 @ 0x467d120] i8c dc,h,v,p: 71% 14% 14%  1%
[libx264 @ 0x467d120] Weighted P-Frames: Y:0.5% UV:0.0%
[libx264 @ 0x467d120] ref P L0: 68.4% 31.6%
[libx264 @ 0x467d120] ref B L0: 85.4% 14.6%
[libx264 @ 0x467d120] ref B L1: 95.1%  4.9%
[libx264 @ 0x467d120] kb/s:14378.76
